<?xml version="1.0" standalone="no"?>
<!DOCTYPE svg PUBLIC "-//W3C//DTD SVG 20010904//EN"
 "http://www.w3.org/TR/2001/REC-SVG-20010904/DTD/svg10.dtd">
<svg version="1.0" xmlns="http://www.w3.org/2000/svg"
 width="1024.000000pt" height="1024.000000pt" viewBox="0 0 1024.000000 1024.000000"
 preserveAspectRatio="xMidYMid meet">

<g transform="translate(0.000000,1024.000000) scale(0.100000,-0.100000)"
fill="#000000" stroke="none">
<path d="M2902 7419 c-25 -13 -55 -39 -70 -62 -23 -35 -27 -51 -26 -112 l0
-72 -55 -29 c-68 -35 -174 -140 -220 -217 -119 -202 -152 -466 -87 -690 30
-102 52 -148 109 -234 l42 -63 390 0 390 1 31 42 c79 105 140 280 151 427 6
93 -4 240 -17 240 -4 0 -59 -30 -123 -66 l-116 -66 -120 4 c-66 1 -121 5 -124
8 -2 3 -7 14 -11 25 -5 18 22 37 218 150 l224 129 -23 45 c-59 117 -164 226
-262 274 l-42 21 6 57 c5 47 2 65 -17 104 -45 92 -157 130 -248 84z m97 -619
l31 -50 -23 -14 c-41 -25 -195 -114 -225 -130 l-30 -16 -31 50 -31 50 23 14
c27 17 251 146 253 146 1 0 16 -22 33 -50z"/>
<path d="M4290 5850 l0 -350 85 0 85 0 0 175 0 175 130 0 130 0 0 45 0 45
-130 0 -130 0 0 85 0 85 220 0 220 0 0 45 0 45 -305 0 -305 0 0 -350z"/>
<path d="M6500 6070 l0 -130 -40 0 -40 0 0 -45 0 -45 40 0 40 0 0 -130 0 -130
45 0 45 0 0 -45 0 -45 130 0 130 0 0 45 0 45 -85 0 -85 0 0 130 0 130 85 0 85
0 0 45 0 45 -85 0 -85 0 0 130 0 130 -90 0 -90 0 0 -130z"/>
<path d="M5110 5895 l0 -45 -40 0 -40 0 0 -130 0 -130 40 0 40 0 0 -45 0 -45
220 0 220 0 0 45 0 45 45 0 45 0 0 130 0 130 -45 0 -45 0 0 45 0 45 -220 0
-220 0 0 -45z m350 -175 l0 -130 -130 0 -130 0 0 130 0 130 130 0 130 0 0
-130z"/>
<path d="M5770 5720 l0 -220 85 0 85 0 0 130 0 130 45 0 45 0 0 45 0 45 130 0
130 0 0 45 0 45 -130 0 -130 0 0 -45 0 -45 -45 0 -45 0 0 45 0 45 -85 0 -85 0
0 -220z"/>
<path d="M2302 5813 c-19 -7 -42 -58 -42 -93 0 -42 23 -84 55 -98 19 -9 193
-12 675 -12 482 0 656 3 675 12 50 23 70 100 40 157 -8 16 -22 31 -30 35 -20
7 -1354 7 -1373 -1z"/>
<path d="M2696 5463 c-7 -35 -266 -1552 -266 -1558 0 -3 252 -5 560 -5 308 0
560 2 560 4 0 6 -259 1525 -266 1559 l-6 27 -288 0 -288 0 -6 -27z"/>
<path d="M4290 4630 l0 -350 260 0 260 0 0 45 0 45 45 0 45 0 0 130 0 130 -45
0 -45 0 0 45 0 45 45 0 45 0 0 85 0 85 -45 0 -45 0 0 45 0 45 -260 0 -260 0 0
-350z m430 175 l0 -85 -130 0 -130 0 0 85 0 85 130 0 130 0 0 -85z m0 -305 l0
-130 -130 0 -130 0 0 130 0 130 130 0 130 0 0 -130z"/>
<path d="M5030 4890 l0 -90 85 0 85 0 0 90 0 90 -85 0 -85 0 0 -90z"/>
<path d="M6080 4630 l0 -350 85 0 85 0 0 175 0 175 130 0 130 0 0 -175 0 -175
90 0 90 0 0 175 0 175 -45 0 -45 0 0 45 0 45 -175 0 -175 0 0 130 0 130 -85 0
-85 0 0 -350z"/>
<path d="M5030 4500 l0 -220 85 0 85 0 0 220 0 220 -85 0 -85 0 0 -220z"/>
<path d="M5420 4675 l0 -45 -40 0 -40 0 0 -45 0 -45 40 0 40 0 0 -45 0 -45
175 0 175 0 0 -40 0 -40 -215 0 -215 0 0 -45 0 -45 260 0 260 0 0 45 0 45 45
0 45 0 0 40 0 40 -45 0 -45 0 0 45 0 45 -175 0 -175 0 0 45 0 45 175 0 175 0
0 45 0 45 -220 0 -220 0 0 -45z"/>
<path d="M6900 4675 l0 -45 -40 0 -40 0 0 -130 0 -130 40 0 40 0 0 -45 0 -45
220 0 220 0 0 45 0 45 45 0 45 0 0 130 0 130 -45 0 -45 0 0 45 0 45 -220 0
-220 0 0 -45z m350 -175 l0 -130 -130 0 -130 0 0 130 0 130 130 0 130 0 0
-130z"/>
<path d="M7560 4370 l0 -350 85 0 85 0 0 130 0 130 175 0 175 0 0 45 0 45 45
0 45 0 0 130 0 130 -45 0 -45 0 0 45 0 45 -260 0 -260 0 0 -350z m430 130 l0
-130 -130 0 -130 0 0 130 0 130 130 0 130 0 0 -130z"/>
<path d="M2311 3766 c-13 -7 -30 -24 -37 -37 -14 -24 -19 -144 -8 -173 6 -14
78 -16 719 -16 641 0 713 2 719 16 11 30 6 145 -8 173 -8 15 -26 32 -41 39
-40 18 -1311 16 -1344 -2z"/>
<path d="M2095 3390 c-12 -24 -15 -75 -15 -280 0 -273 4 -295 55 -318 37 -17
1673 -17 1710 0 51 23 55 45 55 318 0 205 -3 256 -15 280 l-16 30 -879 0 -879
0 -16 -30z"/>
</g>
</svg>
